<svg height="512" viewBox="0 0 64 64" width="512" xmlns="http://www.w3.org/2000/svg"><g id="outline"><path d="m59.368 13.07a78.273 78.273 0 0 0 -27.368-5.07 78.273 78.273 0 0 0 -27.368 5.07c-1.673.661-2.632 2.458-2.632 4.93v9a1 1 0 0 0 .553.895 62.763 62.763 0 0 0 14.5 4.6 3.982 3.982 0 0 0 7.593 1.137q1.633.16 3.357.254v1.114a1 1 0 0 0 1 1h2v2.059a9 9 0 1 0 2 0v-2.059h2a1 1 0 0 0 1-1v-1.113a69.938 69.938 0 0 0 25.444-5.987 1 1 0 0 0 .553-.9v-9c0-2.472-.959-4.269-2.632-4.93zm-42.368 17.356a65.827 65.827 0 0 1 -13-4.064v-5.81a68.432 68.432 0 0 0 13 3.93zm4 3.574a2 2 0 0 1 -1.776-1.1q1.551.265 3.216.481a1.992 1.992 0 0 1 -1.44.619zm7-2.113a73.61 73.61 0 0 1 -9-1.07v-5.959a76.221 76.221 0 0 0 9 1.032zm-8.655-9.008a1.992 1.992 0 0 1 3.559.539c-1.232-.156-2.42-.338-3.559-.539zm19.655 24.121a7 7 0 1 1 -7-7 7.008 7.008 0 0 1 7 7zm-5-13h-4v-10h4zm1-12h-6a1 1 0 0 0 -1 1v.884c-1.034-.058-2.048-.134-3.035-.231a3.985 3.985 0 0 0 -7.665-1.163c-2.234-.458-4.249-.977-6.007-1.495a73.08 73.08 0 0 1 41.414 0 74.255 74.255 0 0 1 -16.707 2.889v-.884a1 1 0 0 0 -1-1zm25 4.362a70.93 70.93 0 0 1 -24 5.525v-6a72.9 72.9 0 0 0 24-5.338zm0-8c-.707.318-2.081.9-4.007 1.577a75.042 75.042 0 0 0 -47.986 0c-1.926-.676-3.3-1.259-4.007-1.577v-.362c0-.944.178-2.6 1.368-3.07a76.126 76.126 0 0 1 26.632-4.93 76.126 76.126 0 0 1 26.632 4.93c1.19.47 1.368 2.126 1.368 3.07z"/><path d="m31 12h2v2h-2z"/><path d="m37 12h2v2h-2z"/><path d="m43 13h2v2h-2z"/><path d="m49 14h2v2h-2z"/><path d="m25 12h2v2h-2z"/><path d="m19 13h2v2h-2z"/><path d="m13 14h2v2h-2z"/><path d="m22 28h2v2h-2z"/><path d="m13 26h2v2h-2z"/><path d="m30.274 42.414a3.414 3.414 0 0 0 -2.948.847 3.877 3.877 0 0 0 .074 5.539l3.964 3a1 1 0 0 0 1.2.006l4.037-3c.027-.021.052-.041.077-.064a3.889 3.889 0 0 0 0-5.478 3.411 3.411 0 0 0 -4.695.057 3.355 3.355 0 0 0 -1.709-.907zm2.571 3.048a1.866 1.866 0 0 1 1.267-1.088 1.442 1.442 0 0 1 1.214.365 1.713 1.713 0 0 1 .474 1.261 1.746 1.746 0 0 1 -.445 1.232l-3.387 2.518-3.294-2.489a1.908 1.908 0 0 1 0-2.522 1.473 1.473 0 0 1 .977-.385 1.232 1.232 0 0 1 .242.023 1.724 1.724 0 0 1 1.164 1.056 1 1 0 0 0 .885.567.972.972 0 0 0 .903-.538z"/></g></svg>