<svg id="Capa_1" enable-background="new 0 0 512 512" height="512" viewBox="0 0 512 512" width="512" xmlns="http://www.w3.org/2000/svg"><g><g><path clip-rule="evenodd" d="m7.512 324.527c0-20.494 30.048-37.105 67.098-37.105 37.077 0 67.125 16.611 67.125 37.105v24.492c-.709 6.236-5.612 11.197-11.849 11.962h-110.525c-6.236-.765-11.169-5.726-11.85-11.962v-24.492z" fill="#ebd2ff" fill-rule="evenodd"/><path clip-rule="evenodd" d="m370.266 324.527c0-20.494 30.048-37.105 67.125-37.105 37.078 0 67.126 16.611 67.126 37.105v24.492c-.709 6.236-5.642 11.197-11.849 11.962h-110.554c-6.208-.765-11.14-5.726-11.849-11.962v-24.492z" fill="#a5cdff" fill-rule="evenodd"/><path clip-rule="evenodd" d="m188.903 462.631c0-20.494 30.048-37.105 67.097-37.105 37.077 0 67.125 16.611 67.125 37.105v24.492c-.708 6.236-5.612 11.197-11.849 11.962h-110.524c-6.236-.765-11.169-5.726-11.849-11.962z" fill="#ccf49f" fill-rule="evenodd"/><path clip-rule="evenodd" d="m303.255 241.444v34.101c0 15.817-12.928 28.743-28.744 28.743h-36.992c-15.818 0-28.773-12.926-28.773-28.743v-34.101l45.78-13.493z" fill="#477b9e" fill-rule="evenodd"/><path clip-rule="evenodd" d="m303.255 241.444v34.101c0 15.817-12.928 28.743-28.744 28.743h-24.293c15.846 0 28.771-12.926 28.771-28.743v-34.101l-36.227-10.035 11.764-3.458z" fill="#365e7d" fill-rule="evenodd"/><path clip-rule="evenodd" d="m256 241.444h-47.254c.057-50.655-49.521-70.555-49.521-131.103 0-53.433 43.342-96.747 96.775-96.747 53.463 0 96.775 43.313 96.775 96.747 0 60.548-49.549 80.447-49.52 131.103z" fill="#ecf4ff" fill-rule="evenodd"/><path d="m248.97 167.573c-1.219-4.479-3.345-10.63-5.782-17.631-6.718-19.446-15.761-44.844-15.761-65.395 0-18.794 7.2-32.202 28.573-32.202 21.401 0 28.602 13.408 28.602 32.202 0 19.701-9.015 45.78-15.789 65.395-2.438 7.058-4.564 13.238-5.811 17.745-1.048 3.855-5.045 6.123-8.9 5.074-2.609-.709-4.508-2.75-5.132-5.188z" fill="#ff6978"/><g clip-rule="evenodd" fill-rule="evenodd"><path d="m477.474 268.6c0 22.053-18.029 40.081-40.083 40.081s-40.081-18.028-40.081-40.081v-42.945c0-12.359 10.091-22.451 22.422-22.451h35.319c12.331 0 22.423 10.091 22.423 22.451z" fill="#ffcbbe"/><path d="m114.72 268.6c0 22.053-18.057 40.081-40.11 40.081-22.025 0-40.083-18.028-40.083-40.081 0-14.315 0-28.63 0-42.945 0-12.359 10.092-22.451 22.451-22.451h51.761c4.11 0 5.981 2.381 5.981 5.981z" fill="#ffcbbe"/><path d="m397.31 225.655v26.334l27.41-13.408c3.686-1.814 7.285-1.984 11.027-.708l41.727 14.117v-26.334c0-12.359-10.092-22.451-22.423-22.451h-35.319c-12.332 0-22.422 10.091-22.422 22.45z" fill="#c68b87"/><path d="m34.526 225.655v12.926h80.193v-29.395c0-3.6-1.871-5.981-5.981-5.981h-51.76c-12.36 0-22.452 10.091-22.452 22.45z" fill="#ffe5a0"/><path d="m296.082 406.704c0 22.053-18.028 40.082-40.082 40.082s-40.082-18.029-40.082-40.082v-42.945c0-12.359 10.092-22.45 22.45-22.45h35.292c12.33 0 22.422 10.091 22.422 22.45z" fill="#ffcbbe"/><path d="m215.918 363.759v15.591c11.311 4.224 20.75.68 26.164-2.409 4.224-2.41 4.933-2.863 9.099.794 19.248 16.866 44.901 7.483 44.901 7.483v-21.458c0-12.359-10.092-22.45-22.422-22.45h-35.292c-12.358-.001-22.45 10.09-22.45 22.449z" fill="#c68b87"/><path d="m100.008 299.554c10.857 6.605 17.461 15.364 17.461 24.973v24.492c-.708 6.236-5.612 11.197-11.849 11.962h24.266c6.236-.765 11.14-5.726 11.849-11.962v-24.492c0-13.975-13.976-26.164-34.64-32.485-2.041 2.807-4.423 5.33-7.087 7.512z" fill="#d7bef0"/><path d="m281.398 437.687c10.857 6.577 17.462 15.335 17.462 24.945v24.492c-.709 6.236-5.642 11.197-11.85 11.962h24.266c6.236-.765 11.141-5.726 11.849-11.962v-24.492c0-13.975-14.003-26.164-34.64-32.485-2.041 2.806-4.421 5.329-7.087 7.54z" fill="#b3e59f"/><path d="m462.789 299.554c10.83 6.605 17.463 15.364 17.463 24.973v24.492c-.709 6.236-5.641 11.197-11.851 11.962h24.267c6.207-.765 11.14-5.726 11.849-11.962v-24.492c0-13.975-14.003-26.164-34.668-32.485-2.014 2.807-4.395 5.33-7.06 7.512z" fill="#8abfff"/><path d="m90.455 238.581v30.019c0 7.001-1.814 13.578-4.989 19.304-3.345 6.01-8.164 11.083-13.975 14.712-2.778 1.757-5.812 3.175-9.015 4.195 3.203 1.021 6.548 1.644 10.007 1.814.709.057 1.417.057 2.126.057 9.638 0 18.481-3.43 25.398-9.127 2.664-2.183 5.046-4.706 7.087-7.512 4.79-6.605 7.625-14.712 7.625-23.442v-30.019h-24.264z" fill="#f7beaf"/><path d="m90.455 209.186v29.395h24.265v-29.395c0-3.6-1.871-5.981-5.981-5.981h-24.265c4.11 0 5.981 2.381 5.981 5.981z" fill="#f2ce7e"/><path d="m271.817 406.704c0 7.001-1.815 13.578-4.989 19.304-4.903 8.901-13.124 15.761-22.96 18.907 3.826 1.219 7.908 1.871 12.132 1.871 9.609 0 18.481-3.402 25.398-9.1 2.665-2.211 5.046-4.734 7.087-7.54 4.79-6.605 7.597-14.712 7.597-23.442v-21.487s-11.141 4.082-24.265 2.013z" fill="#f7beaf"/><path d="m271.817 363.759v23.471c13.124 2.069 24.265-2.013 24.265-2.013v-21.458c0-12.359-10.092-22.45-22.422-22.45h-24.265c12.331 0 22.422 10.091 22.422 22.45z" fill="#bd7d79"/><path d="m453.208 243.797v24.803c0 7.001-1.814 13.578-4.988 19.304-1.871 3.402-4.225 6.492-6.974 9.213-4.45 4.365-9.921 7.738-15.987 9.694 3.826 1.219 7.908 1.871 12.132 1.871.709 0 1.418 0 2.126-.057 5.527-.283 10.744-1.701 15.449-4.025 2.807-1.361 5.414-3.061 7.823-5.046 2.665-2.183 5.046-4.706 7.06-7.512 4.79-6.605 7.625-14.712 7.625-23.442v-16.611l-22.734-7.682z" fill="#f7beaf"/><path d="m446.009 209.214c4.422 4.081 7.199 9.95 7.199 16.441v10.063 8.079l1.531.51 22.734 7.682v-26.334c0-12.359-10.092-22.451-22.423-22.451h-11.226-13.039c5.868.001 11.227 2.269 15.224 6.01z" fill="#bd7d79"/><path d="m325.535 86.474c1.984 7.795 2.977 15.817 2.977 23.868 0 57.855-45.214 78.576-49.239 124.469-.17 2.154-.283 4.337-.283 6.633h.964 23.302c-.028-49.38 49.52-72.822 49.52-131.103 0-53.32-43.199-96.747-96.775-96.747-4.11 0-8.164.255-12.132.737 39.74 4.99 72 34.045 81.666 72.143z" fill="#ddeafb"/></g></g><path d="m71.35 194.672c2.636-6.094 5.556-11.991 8.702-17.66 3.997-7.257 8.391-14.145 13.124-20.693 2.409-3.345 7.115-4.082 10.46-1.672 3.345 2.437 4.082 7.115 1.673 10.459-4.479 6.18-8.532 12.558-12.189 19.163-1.899 3.401-3.685 6.888-5.357 10.403h27.326c4.167 0 7.512 3.345 7.512 7.483v35.518 30.132c0 6.945-1.503 13.55-4.195 19.531 7.88 3.288 14.6 7.483 19.73 12.331 7.37 6.916 11.594 15.222 11.594 24.236v36.595c0 4.139-3.373 7.512-7.512 7.512h-46.576c2.467 4.223 5.104 8.362 7.881 12.359 5.188 7.455 10.856 14.457 16.979 20.948 2.835 3.004 2.692 7.738-.34 10.573-3.005 2.835-7.739 2.692-10.573-.312-6.662-7.115-12.812-14.684-18.369-22.649-4.648-6.69-8.9-13.663-12.727-20.92h-70.981c-4.139 0-7.512-3.373-7.512-7.512v-36.595c0-8.957 4.167-17.178 11.424-24.094 5.159-4.904 11.962-9.156 19.899-12.473-2.693-5.981-4.195-12.586-4.195-19.531v-30.132-12.982c0-8.277 3.373-15.789 8.816-21.231 5.442-5.414 12.956-8.788 21.204-8.788h14.202zm398.526 61.824-39.572-13.408-25.88 12.699v12.019c0 8.986 3.686 17.178 9.609 23.103 5.925 5.924 14.116 9.609 23.103 9.609 9.014 0 17.178-3.685 23.131-9.609 5.924-5.924 9.609-14.117 9.609-23.103zm-65.452-17.348 21.657-10.602c1.785-1.049 3.996-1.332 6.123-.624l37.672 12.756v-15.987c0-4.139-1.672-7.88-4.422-10.602-2.722-2.749-6.463-4.422-10.602-4.422h-35.434c-4.109 0-7.852 1.672-10.602 4.422-2.721 2.721-4.394 6.463-4.394 10.602v14.457zm-362.301-8.986h65.481v-20.494h-50.457c-4.11 0-7.88 1.672-10.602 4.422-2.721 2.721-4.423 6.463-4.423 10.602v5.47zm65.481 14.995h-65.481v22.649c0 8.986 3.687 17.178 9.639 23.103 5.925 5.924 14.116 9.609 23.103 9.609 8.986 0 17.178-3.685 23.102-9.609 5.952-5.924 9.638-14.117 9.638-23.103v-22.649zm181.136 148.338c-10.715 1.559-28.177 1.389-42.661-11.395-5.074 2.948-13.097 6.236-22.819 5.443v18.17c0 8.986 3.685 17.178 9.638 23.131 5.925 5.924 14.117 9.609 23.102 9.609 9.015 0 17.178-3.685 23.131-9.609 5.925-5.953 9.609-14.145 9.609-23.131zm-65.48-20.977c10.913 1.531 18.596-5.613 18.596-5.641l.028.028.17-.17c3.118-2.693 7.823-2.353 10.545.766 11.735 13.493 28.006 12.5 36.142 10.913v-15.817c0-4.11-1.701-7.88-4.422-10.602-2.722-2.721-6.463-4.422-10.602-4.422h-35.434c-4.11 0-7.88 1.701-10.602 4.422-2.721 2.722-4.422 6.492-4.422 10.602v9.921zm-113.303-72.453c-9.042 9.836-21.714 15.477-35.093 15.477-13.38 0-26.051-5.641-35.094-15.449-7.455 2.778-13.635 6.378-18.028 10.545-4.28 4.082-6.746 8.617-6.746 13.266v29.112h119.736v-29.112c0-4.677-2.494-9.241-6.86-13.351-4.393-4.139-10.517-7.71-17.915-10.488zm374.915-32.259c0 6.945-1.502 13.55-4.195 19.531 7.938 3.316 14.712 7.568 19.871 12.444 7.285 6.917 11.452 15.137 11.452 24.123v36.595c0 4.139-3.346 7.512-7.483 7.512h-71.264c-3.855 7.001-8.192 13.861-12.927 20.523-5.641 7.909-11.82 15.449-18.482 22.536-2.835 3.005-7.568 3.147-10.573.312s-3.147-7.568-.341-10.573c6.236-6.604 11.991-13.634 17.207-20.948 2.749-3.855 5.357-7.795 7.823-11.849h-46.178c-4.139 0-7.512-3.373-7.512-7.512v-36.595c0-9.014 4.225-17.263 11.565-24.207 5.131-4.848 11.879-9.071 19.787-12.359-2.721-5.981-4.224-12.586-4.224-19.531v-43.115c0-8.277 3.401-15.789 8.815-21.231 5.443-5.414 12.955-8.788 21.203-8.788h4.904c-1.615-3.458-3.373-6.86-5.244-10.205-3.713-6.69-7.881-13.21-12.444-19.446-2.438-3.345-1.728-8.022 1.616-10.459 3.316-2.438 7.993-1.73 10.46 1.615 4.875 6.69 9.382 13.72 13.437 21.033 3.146 5.641 6.009 11.48 8.588 17.461h14.117c8.277 0 15.789 3.374 21.232 8.788 5.414 5.442 8.787 12.954 8.787 21.231v43.114zm-12.643 32.287c-9.043 9.808-21.686 15.449-35.094 15.449-13.379 0-26.021-5.641-35.093-15.449-7.398 2.75-13.55 6.35-17.944 10.488-4.337 4.11-6.804 8.674-6.804 13.323v29.112h119.709v-29.112c0-4.649-2.466-9.184-6.774-13.266-4.365-4.167-10.544-7.767-18-10.545zm-168.493 105.619c0 6.945-1.502 13.578-4.196 19.531 7.938 3.345 14.713 7.568 19.872 12.472 2.807 2.665 5.159 5.528 6.973 8.561 6.01-2.551 11.85-5.414 17.547-8.589 7.881-4.394 15.478-9.411 22.734-14.939 3.287-2.523 7.965-1.899 10.488 1.389 2.494 3.288 1.87 7.994-1.418 10.488-7.767 5.925-15.959 11.339-24.548 16.129-6.604 3.685-13.408 7.002-20.353 9.865.028.396.028.822.028 1.219v36.595c0 4.139-3.345 7.483-7.483 7.483h-134.732c-4.139 0-7.513-3.345-7.513-7.483v-36.595c0-.397.028-.794.028-1.19-7.143-2.92-14.088-6.208-20.806-9.865-8.561-4.649-16.725-9.921-24.491-15.732-3.316-2.466-3.969-7.143-1.503-10.46 2.466-3.289 7.172-3.969 10.46-1.474 7.172 5.357 14.74 10.205 22.678 14.542 5.839 3.203 11.877 6.066 18.084 8.646 1.814-3.004 4.139-5.839 6.917-8.504 5.159-4.932 11.962-9.184 19.984-12.529-2.722-5.981-4.224-12.586-4.224-19.559v-43.115c0-8.249 3.373-15.76 8.816-21.203 5.442-5.442 12.954-8.815 21.203-8.815h35.434c8.276 0 15.789 3.373 21.203 8.815 5.442 5.443 8.816 12.954 8.816 21.203v43.114zm-12.643 32.287c-9.043 9.836-21.713 15.449-35.093 15.449s-26.05-5.613-35.093-15.449c-7.484 2.778-13.664 6.435-18.086 10.63-4.252 4.053-6.69 8.589-6.69 13.21v29.083h119.738v-29.083c0-4.649-2.467-9.213-6.747-13.266-4.394-4.168-10.574-7.797-18.029-10.574zm-164.411-297.525c-2.977 2.863-7.71 2.778-10.573-.199-2.863-2.976-2.778-7.71.198-10.573 5.953-5.726 12.188-11.055 18.738-15.959 5.414-4.053 11.14-7.88 17.121-11.452 1.928-25.597 13.096-48.614 30.217-65.708 18.822-18.85 44.874-30.5 73.617-30.5 28.772 0 54.795 11.65 73.645 30.5 16.98 16.979 28.12 39.827 30.161 65.197 5.868 3.6 11.537 7.512 16.979 11.65 6.548 4.989 12.842 10.403 18.795 16.214 2.977 2.863 3.033 7.597.17 10.573-2.892 2.948-7.625 3.005-10.573.142-5.528-5.358-11.368-10.375-17.462-15.024-2.608-2.013-5.273-3.912-7.938-5.754-2.324 28.488-15.052 47.849-27.27 66.388-11.055 16.809-21.656 32.91-21.826 54.539l.028 34.667c0 9.978-4.082 19.021-10.66 25.597-6.547 6.548-15.618 10.63-25.568 10.63h-36.936c-9.977 0-19.049-4.082-25.597-10.63-6.549-6.577-10.631-15.619-10.631-25.597l.029-34.667c-.199-21.628-10.773-37.73-21.827-54.539-12.189-18.482-24.86-37.729-27.241-66.047-2.807 1.871-5.556 3.827-8.249 5.839-6.177 4.594-11.961 9.526-17.347 14.713zm89.633 123.336h79.369v-15.194h-79.369zm79.058 14.995h-78.746c.765 4.393 2.892 8.334 5.925 11.367 3.854 3.855 9.155 6.236 14.994 6.236h36.936c5.812 0 11.112-2.381 14.967-6.236 3.032-3.033 5.159-6.974 5.924-11.367zm-46.602-111.373c-1.219-4.479-3.345-10.602-5.754-17.604-6.775-19.587-15.789-45.666-15.789-65.367 0-18.907 7.229-32.4 28.771-32.4 21.544 0 28.8 13.493 28.8 32.4 0 19.701-9.014 45.78-15.789 65.367-2.438 7.03-4.563 13.21-5.811 17.689-1.077 3.997-5.188 6.321-9.156 5.244-2.691-.738-4.619-2.835-5.272-5.329zm-6.547-82.971c0 16.384 7.568 39.203 13.776 57.26 6.236-18.057 13.805-40.876 13.805-57.26 0-10.148-3.486-17.405-13.805-17.405-10.318.001-13.776 7.258-13.776 17.405zm6.293 109.446c0-4.139 3.345-7.483 7.483-7.483s7.512 3.345 7.512 7.483v7.795c0 4.139-3.373 7.484-7.512 7.484s-7.483-3.345-7.483-7.484zm-32.571 39.714h80.107c1.984-22.422 12.757-38.806 23.981-55.843 12.274-18.652 25.115-38.183 25.115-67.549 0-24.633-9.977-46.914-26.107-63.043-16.128-16.129-38.409-26.107-63.042-26.107-24.605 0-46.886 9.978-63.016 26.107-16.129 16.129-26.107 38.41-26.107 63.043 0 29.367 12.841 48.897 25.114 67.549 11.198 17.037 21.998 33.42 23.955 55.843z"/></g></svg>