<svg id="Capa_1" enable-background="new 0 0 512 512" height="512" viewBox="0 0 512 512" width="512" xmlns="http://www.w3.org/2000/svg"><g><path d="m363.22 156.016 5.628-3.77h108.169l5.091 3.771c18.34-16.361 29.892-40.17 29.892-66.681 0-49.339-39.997-89.336-89.336-89.336s-89.336 39.997-89.336 89.336c.001 26.51 11.552 50.319 29.892 66.68z" fill="#4a80aa"/><g><path d="m367.582 89.336c0-43.48 31.065-79.699 72.209-87.689-5.544-1.076-11.268-1.647-17.127-1.647-49.339 0-89.336 39.997-89.336 89.336 0 26.511 11.552 50.32 29.891 66.681l5.628-3.77h24.659c-16.019-16.147-25.924-38.369-25.924-62.911z" fill="#407093"/></g><path d="m338.075 238.415h-15.035c-2.67 0-5.066-1.667-5.962-4.182-.733-2.059-1.566-4.069-2.496-6.026-1.146-2.414-.634-5.288 1.256-7.178l10.631-10.631c2.479-2.479 2.479-6.499 0-8.979l-15.89-15.89c-2.479-2.479-6.499-2.479-8.979 0l-10.631 10.632c-1.89 1.89-4.764 2.402-7.178 1.256-1.957-.929-3.967-1.762-6.025-2.495-2.515-.895-4.182-3.292-4.182-5.961v-15.035c0-3.507-2.842-6.349-6.349-6.349h-22.472c-3.506 0-6.349 2.842-6.349 6.349v15.035c0 2.67-1.667 5.066-4.182 5.961-2.058.733-4.069 1.566-6.025 2.495-2.414 1.146-5.288.634-7.178-1.256l-10.631-10.632c-2.479-2.479-6.499-2.479-8.979 0l-15.89 15.891c-2.479 2.479-2.479 6.499 0 8.978l10.631 10.632c1.89 1.889 2.402 4.764 1.255 7.178-.929 1.956-1.763 3.967-2.495 6.025-.895 2.515-3.292 4.182-5.962 4.182h-15.035c-3.506 0-6.349 2.842-6.349 6.349v22.472c0 3.507 2.842 6.349 6.349 6.349h15.035c2.67 0 5.066 1.667 5.962 4.182.733 2.059 1.566 4.069 2.496 6.025 1.146 2.414.634 5.288-1.256 7.178l-10.631 10.632c-2.479 2.479-2.479 6.499 0 8.978l15.89 15.89c2.479 2.48 6.499 2.48 8.979 0l10.631-10.632c1.89-1.89 4.764-2.402 7.178-1.255 1.957.929 3.967 1.762 6.025 2.495 2.515.896 4.182 3.292 4.182 5.961v15.035c0 3.507 2.842 6.349 6.349 6.349h22.472c3.506 0 6.349-2.842 6.349-6.349v-15.034c0-2.67 1.667-5.066 4.182-5.961 2.059-.733 4.069-1.566 6.025-2.495 2.414-1.146 5.288-.635 7.178 1.255l10.631 10.632c2.479 2.48 6.499 2.48 8.979 0l15.89-15.89c2.479-2.479 2.479-6.499 0-8.978l-10.631-10.632c-1.89-1.89-2.402-4.764-1.256-7.178.929-1.956 1.763-3.967 2.496-6.025.896-2.515 3.292-4.182 5.962-4.182h15.035c3.506 0 6.349-2.842 6.349-6.349v-22.472c0-3.507-2.843-6.35-6.349-6.35zm-82.075 51.096c-18.508 0-33.511-15.003-33.511-33.511s15.004-33.512 33.511-33.512c18.508 0 33.512 15.003 33.512 33.512 0 18.508-15.004 33.511-33.512 33.511z" fill="#ffe07d"/><circle cx="422.664" cy="59.289" fill="#ffdecf" r="30.047"/><path d="m430.815 80.535c-11.734-11.734-11.734-30.759 0-42.493 1.995-1.995 4.204-3.642 6.548-4.959-11.447-6.428-26.206-4.781-35.945 4.959-11.734 11.734-11.734 30.759 0 42.493 9.739 9.739 24.498 11.387 35.945 4.959-2.345-1.317-4.553-2.964-6.548-4.959z" fill="#ffcebe"/><path d="m447.743 117.58c-10.63 0-41.486 0-50.157 0-18.98 0-34.366 15.386-34.366 34.366v4.07c15.792 14.088 36.616 22.655 59.444 22.655s43.652-8.567 59.444-22.655v-4.07c.001-18.98-15.385-34.366-34.365-34.366z" fill="#ffaa5b"/><path d="m407.775 150.916c0-16.094 11.065-29.599 26.002-33.335-13.252 0-30.133 0-36.191 0-18.979 0-34.366 15.386-34.366 34.366v4.07c12.281 10.956 27.612 18.55 44.555 21.395z" fill="#ff9838"/><g><path d="m304.615 97.062h-97.23c-4.267 0-7.726-3.459-7.726-7.726s3.459-7.726 7.726-7.726h97.23c4.267 0 7.726 3.459 7.726 7.726s-3.459 7.726-7.726 7.726z" fill="#e4f6ff"/></g><g><path d="m304.615 430.391h-97.23c-4.267 0-7.726-3.459-7.726-7.726s3.459-7.726 7.726-7.726h97.23c4.267 0 7.726 3.459 7.726 7.726s-3.459 7.726-7.726 7.726z" fill="#e4f6ff"/></g><g><path d="m89.336 312.342c-4.267 0-7.726-3.459-7.726-7.726v-97.23c0-4.268 3.459-7.726 7.726-7.726s7.726 3.459 7.726 7.726v97.23c0 4.267-3.459 7.726-7.726 7.726z" fill="#e4f6ff"/></g><g><path d="m422.664 312.342c-4.267 0-7.726-3.459-7.726-7.726v-97.23c0-4.268 3.459-7.726 7.726-7.726s7.726 3.459 7.726 7.726v97.23c.001 4.267-3.459 7.726-7.726 7.726z" fill="#e4f6ff"/></g><path d="m29.891 156.016 5.628-3.77h108.169l5.091 3.771c18.34-16.361 29.891-40.17 29.891-66.681.001-49.339-39.996-89.336-89.334-89.336-49.339 0-89.336 39.997-89.336 89.336 0 26.51 11.552 50.319 29.891 66.68z" fill="#4a80aa"/><g><path d="m34.254 89.336c0-43.48 31.065-79.699 72.209-87.689-5.544-1.076-11.269-1.647-17.127-1.647-49.339 0-89.336 39.997-89.336 89.336 0 26.511 11.552 50.32 29.891 66.681l5.628-3.77h24.659c-16.02-16.147-25.924-38.369-25.924-62.911z" fill="#407093"/></g><circle cx="89.336" cy="59.289" fill="#ffdecf" r="30.047"/><path d="m97.486 80.535c-11.734-11.734-11.734-30.759 0-42.493 1.995-1.995 4.204-3.642 6.548-4.959-11.447-6.428-26.206-4.781-35.945 4.959-11.734 11.734-11.734 30.759 0 42.493 9.739 9.739 24.498 11.387 35.945 4.959-2.345-1.317-4.553-2.964-6.548-4.959z" fill="#ffcebe"/><path d="m114.414 117.58c-10.63 0-41.486 0-50.157 0-18.98 0-34.366 15.386-34.366 34.366v4.07c15.792 14.088 36.616 22.655 59.444 22.655s43.652-8.567 59.444-22.655v-4.07c.001-18.98-15.385-34.366-34.365-34.366z" fill="#dd636e"/><path d="m74.446 150.916c0-16.094 11.065-29.599 26.002-33.335-13.252 0-30.133 0-36.191 0-18.979 0-34.366 15.386-34.366 34.366v4.07c12.281 10.956 27.612 18.55 44.555 21.395z" fill="#da4a54"/><path d="m363.22 489.345 5.628-3.771h108.169l5.091 3.771c18.34-16.361 29.891-40.17 29.891-66.681 0-49.339-39.997-89.336-89.336-89.336s-89.336 39.997-89.336 89.336c.002 26.511 11.553 50.32 29.893 66.681z" fill="#4a80aa"/><g><path d="m367.582 422.664c0-43.48 31.065-79.699 72.209-87.689-5.544-1.077-11.268-1.647-17.127-1.647-49.339 0-89.336 39.997-89.336 89.336 0 26.511 11.552 50.32 29.891 66.681l5.628-3.771h24.659c-16.019-16.146-25.924-38.368-25.924-62.91z" fill="#407093"/></g><circle cx="422.664" cy="392.617" fill="#ffdecf" r="30.047"/><path d="m430.815 413.863c-11.734-11.734-11.734-30.759 0-42.493 1.995-1.995 4.204-3.642 6.548-4.959-11.447-6.428-26.206-4.781-35.945 4.959-11.734 11.734-11.734 30.759 0 42.493 9.739 9.739 24.498 11.387 35.945 4.959-2.345-1.317-4.553-2.964-6.548-4.959z" fill="#ffcebe"/><path d="m447.743 450.909c-10.63 0-41.486 0-50.157 0-18.98 0-34.366 15.386-34.366 34.366v4.07c15.792 14.088 36.616 22.655 59.444 22.655s43.652-8.567 59.444-22.655v-4.07c.001-18.98-15.385-34.366-34.365-34.366z" fill="#90d8f9"/><path d="m407.775 484.244c0-16.094 11.065-29.599 26.002-33.335-13.252 0-30.133 0-36.191 0-18.979 0-34.366 15.386-34.366 34.366v4.07c12.281 10.956 27.612 18.55 44.555 21.395z" fill="#75cef9"/><path d="m29.891 489.345 5.628-3.771h108.169l5.091 3.771c18.34-16.361 29.891-40.17 29.891-66.681 0-49.339-39.997-89.336-89.336-89.336-49.337.001-89.334 39.997-89.334 89.336 0 26.511 11.552 50.32 29.891 66.681z" fill="#4a80aa"/><g><path d="m34.254 422.664c0-43.48 31.065-79.699 72.209-87.689-5.544-1.077-11.268-1.647-17.127-1.647-49.339.001-89.336 39.997-89.336 89.336 0 26.511 11.552 50.32 29.891 66.681l5.628-3.771h24.659c-16.02-16.146-25.924-38.368-25.924-62.91z" fill="#407093"/></g><circle cx="89.336" cy="392.617" fill="#ffdecf" r="30.047"/><path d="m97.486 413.863c-11.734-11.734-11.734-30.759 0-42.493 1.995-1.995 4.204-3.642 6.548-4.959-11.447-6.428-26.206-4.781-35.945 4.959-11.734 11.734-11.734 30.759 0 42.493 9.739 9.739 24.498 11.387 35.945 4.959-2.345-1.317-4.553-2.964-6.548-4.959z" fill="#ffcebe"/><path d="m114.414 450.909c-10.63 0-41.486 0-50.157 0-18.98 0-34.366 15.386-34.366 34.366v4.07c15.792 14.088 36.616 22.655 59.444 22.655s43.652-8.567 59.444-22.655v-4.07c.001-18.98-15.385-34.366-34.365-34.366z" fill="#b3e59f"/><path d="m74.446 484.244c0-16.094 11.065-29.599 26.002-33.335-13.252 0-30.133 0-36.191 0-18.979 0-34.366 15.386-34.366 34.366v4.07c12.281 10.956 27.612 18.55 44.555 21.395z" fill="#95d6a4"/><path d="m215.769 256c0-38.049 24.035-70.479 57.748-82.951-.428-3.091-3.073-5.473-6.281-5.473h-22.472c-3.507 0-6.349 2.842-6.349 6.349v15.035c0 2.67-1.667 5.066-4.182 5.961-2.058.733-4.069 1.566-6.025 2.495-2.414 1.146-5.288.634-7.178-1.256l-10.632-10.631c-2.479-2.479-6.499-2.479-8.979 0l-15.89 15.891c-2.479 2.479-2.479 6.499 0 8.978l10.631 10.632c1.89 1.889 2.402 4.763 1.255 7.178-.929 1.956-1.763 3.967-2.495 6.025-.895 2.515-3.291 4.182-5.962 4.182h-15.034c-3.507 0-6.349 2.842-6.349 6.349v22.472c0 3.507 2.843 6.349 6.349 6.349h15.035c2.67 0 5.066 1.667 5.962 4.182.733 2.059 1.566 4.069 2.495 6.025 1.146 2.414.634 5.288-1.256 7.178l-10.631 10.632c-2.479 2.479-2.479 6.499 0 8.978l15.89 15.89c2.479 2.48 6.499 2.48 8.979 0l10.631-10.631c1.89-1.89 4.764-2.402 7.178-1.255 1.956.929 3.967 1.763 6.025 2.495 2.515.896 4.182 3.292 4.182 5.961v15.035c0 3.507 2.842 6.349 6.349 6.349h22.472c3.208 0 5.854-2.382 6.281-5.473-33.712-12.472-57.747-44.902-57.747-82.951z" fill="#ffc250"/></g></svg>