<svg height="451pt" viewBox="0 0 451.87756 451" width="451pt" xmlns="http://www.w3.org/2000/svg"><path d="m187.011719 165.671875c-44.636719 0-80.828125 43.941406-80.828125 80.996094 0 21.789062 12.523437 32.996093 31.910156 38.535156l28.3125 4.390625c6.578125.425781 13.480469.59375 20.601562.59375 44.640626 0 80.828126-6.46875 80.828126-43.519531 0-37.054688-36.1875-80.996094-80.824219-80.996094zm0 0" fill="#87796f"/><path d="m187.011719 162.671875c-46.433594 0-83.828125 45.953125-83.828125 83.996094 0 21.320312 11.152344 34.867187 34.085937 41.417969 1.589844.449218 3.253907-.46875 3.710938-2.058594.453125-1.59375-.46875-3.253906-2.0625-3.707032-20.285157-5.796874-29.734375-17.125-29.734375-35.652343 0-35.328125 34.714844-77.996094 77.828125-77.996094s77.828125 42.671875 77.828125 77.996094c0 28.78125-22.546875 40.519531-77.828125 40.519531-7.644531 0-14.320313-.191406-20.410157-.585938-1.664062-.101562-3.082031 1.144532-3.1875 2.800782-.109374 1.652344 1.144532 3.078125 2.800782 3.1875 6.21875.402344 13.023437.597656 20.796875.597656 41.453125 0 83.828125-5.527344 83.828125-46.519531-.003906-38.042969-37.394532-83.996094-83.828125-83.996094zm0 0" fill="#3a312a"/><path d="m187.011719 56.1875c-17.484375 0-31.65625 18.1875-31.65625 40.625 0 22.433594 14.171875 40.621094 31.65625 40.621094 17.480469 0 31.652343-18.1875 31.652343-40.621094 0-22.4375-14.171874-40.625-31.652343-40.625zm0 0" fill="#87796f"/><path d="m187.011719 53.1875c-19.109375 0-34.65625 19.570312-34.65625 43.625s15.546875 43.621094 34.65625 43.621094 34.65625-19.570313 34.65625-43.621094c-.003907-24.054688-15.550781-43.625-34.65625-43.625zm0 81.246094c-15.800781 0-28.65625-16.878906-28.65625-37.621094 0-20.746094 12.855469-37.625 28.65625-37.625s28.65625 16.878906 28.65625 37.625c-.003907 20.742188-12.855469 37.621094-28.65625 37.621094zm0 0" fill="#3a312a"/><path d="m124.90625 114.199219c-10.480469-19.835938-31.507812-29.296875-46.964844-21.128907-15.457031 8.164063-19.492187 30.867188-9.011718 50.703126 10.480468 19.835937 31.503906 29.296874 46.964843 21.128906 15.457031-8.164063 19.492188-30.863282 9.011719-50.703125zm0 0" fill="#87796f"/><path d="m127.558594 112.796875c-5.382813-10.179687-13.5625-18.136719-23.039063-22.398437-9.730469-4.378907-19.667969-4.375-27.980469.019531-8.3125 4.386719-13.917968 12.59375-15.785156 23.101562-1.820312 10.234375.140625 21.476563 5.519532 31.65625 5.378906 10.179688 13.5625 18.136719 23.039062 22.402344 4.859375 2.183594 9.769531 3.277344 14.503906 3.277344 4.746094 0 9.316406-1.097657 13.476563-3.296875 16.898437-8.925782 21.5-33.492188 10.265625-54.761719zm-13.066406 49.457031c-6.640626 3.507813-14.707032 3.453125-22.71875-.148437-8.261719-3.71875-15.433594-10.726563-20.191407-19.734375-4.757812-9.007813-6.507812-18.878906-4.921875-27.800782 1.539063-8.648437 6.039063-15.339843 12.679688-18.851562 3.273437-1.726562 6.894531-2.59375 10.683594-2.59375 3.894531 0 7.972656.914062 12.035156 2.742188 8.261718 3.71875 15.433594 10.726562 20.191406 19.734374 9.691406 18.34375 6.210938 39.269532-7.757812 46.652344zm0 0" fill="#3a312a"/><path d="m59.757812 174.574219c-17.859374-13.574219-40.917968-13.296875-51.496093.621093-10.578125 13.921876-4.671875 36.210938 13.195312 49.785157 17.863281 13.570312 40.917969 13.292969 51.492188-.625 10.578125-13.921875 4.675781-36.207031-13.191407-49.78125zm0 0" fill="#87796f"/><path d="m61.574219 172.183594c-19.148438-14.550782-44.136719-14.015625-55.699219 1.199218-5.6875 7.484376-7.3125 17.289063-4.578125 27.605469 2.660156 10.042969 9.175781 19.414063 18.34375 26.378907 9.296875 7.066406 19.96875 10.574218 29.8125 10.574218 10.433594 0 19.941406-3.941406 25.886719-11.769531 11.5625-15.21875 5.386718-39.433594-13.765625-53.988281zm8.988281 50.355468c-9.558594 12.578126-30.773438 12.601563-47.292969.050782-8.109375-6.164063-13.855469-14.378906-16.175781-23.140625-2.25-8.488281-.984375-16.457031 3.558594-22.4375 4.789062-6.300781 12.496094-9.449219 21.078125-9.449219 8.550781 0 17.96875 3.132812 26.214843 9.398438 16.519532 12.550781 22.179688 32.996093 12.617188 45.578124zm0 0" fill="#3a312a"/><path d="m296.578125 93.070312c-15.460937-8.164062-36.484375 1.292969-46.964844 21.132813-10.480469 19.835937-6.445312 42.539063 9.011719 50.703125 15.457031 8.167969 36.484375-1.292969 46.964844-21.128906 10.480468-19.839844 6.441406-42.539063-9.011719-50.707032zm0 0" fill="#87796f"/><path d="m313.761719 113.519531c-1.867188-10.507812-7.472657-18.710937-15.785157-23.101562-8.308593-4.390625-18.246093-4.398438-27.980468-.019531-9.476563 4.261718-17.660156 12.21875-23.039063 22.398437-11.234375 21.269531-6.632812 45.832031 10.261719 54.757813 4.1875 2.214843 8.742188 3.261718 13.398438 3.261718 14.125 0 29.171874-9.644531 37.621093-25.640625 5.382813-10.179687 7.34375-21.421875 5.523438-31.65625zm-10.824219 28.851563c-9.691406 18.34375-28.9375 27.261718-42.914062 19.882812-13.96875-7.382812-17.449219-28.3125-7.757813-46.652344 4.757813-9.007812 11.929687-16.015624 20.195313-19.734374 4.058593-1.828126 8.132812-2.742188 12.03125-2.742188 3.789062 0 7.410156.867188 10.683593 2.59375 6.640625 3.511719 11.144531 10.203125 12.679688 18.851562 1.585937 8.925782-.160157 18.796876-4.917969 27.800782zm0 0" fill="#3a312a"/><path d="m364.644531 175.195312c-10.578125-13.917968-33.632812-14.195312-51.496093-.621093-17.867188 13.574219-23.769532 35.859375-13.191407 49.78125 10.574219 13.917969 33.628907 14.195312 51.492188.625 17.867187-13.574219 23.773437-35.863281 13.195312-49.785157zm0 0" fill="#87796f"/><path d="m367.03125 173.382812c-11.5625-15.214843-36.546875-15.75-55.699219-1.199218-19.152343 14.554687-25.324219 38.773437-13.765625 53.988281 5.949219 7.828125 15.453125 11.769531 25.890625 11.769531 9.839844 0 20.511719-3.507812 29.808594-10.574218 9.167969-6.964844 15.683594-16.335938 18.347656-26.378907 2.734375-10.316406 1.109375-20.121093-4.582031-27.605469zm-1.21875 26.066407c-2.320312 8.757812-8.066406 16.976562-16.175781 23.140625-16.515625 12.550781-37.730469 12.527344-47.292969-.050782-9.558594-12.578124-3.898438-33.027343 12.621094-45.578124 16.515625-12.550782 37.730468-12.527344 47.292968.050781 4.542969 5.980469 5.804688 13.949219 3.554688 22.4375zm0 0" fill="#3a312a"/><path d="m422.433594 22.792969c-1.949219 23.128906-26.046875 26.78125-26.046875 26.78125 20.691406.972656 25.847656 28.117187 25.847656 28.117187.441406-19.355468 26.644531-28.40625 26.644531-28.40625-19.628906-1.175781-26.445312-26.492187-26.445312-26.492187zm0 0" fill="#d7e057"/><path d="m449.058594 46.289062c-17.210938-1.027343-23.664063-24.046874-23.730469-24.28125-.378906-1.402343-1.691406-2.324218-3.164063-2.203124-1.449218.132812-2.597656 1.285156-2.71875 2.734374-1.71875 20.429688-22.628906 23.925782-23.507812 24.066407-1.527344.230469-2.625 1.578125-2.546875 3.121093.082031 1.539063 1.316406 2.769532 2.855469 2.84375 18.054687.847657 22.996094 25.433594 23.046875 25.683594.273437 1.421875 1.515625 2.433594 2.941406 2.433594.085937 0 .167969-.003906.253906-.011719 1.527344-.128906 2.710938-1.386719 2.746094-2.917969.390625-17.015624 24.382813-25.554687 24.625-25.636718 1.351563-.46875 2.1875-1.828125 1.988281-3.246094-.195312-1.417969-1.363281-2.5-2.789062-2.585938zm-27.132813 20.695313c-2.714843-6.261719-7.417969-13.816406-15.175781-17.753906 5.863281-2.808594 12.820312-7.824219 16.40625-16.546875 3.101562 6.144531 8.398438 13.761718 16.664062 17.445312-6.011718 3.28125-13.84375 8.808594-17.894531 16.855469zm0 0" fill="#3a312a"/><path d="m379.035156 56.753906c-1.378906 16.359375-18.425781 18.941406-18.425781 18.941406 14.636719.6875 18.285156 19.890626 18.285156 19.890626.3125-13.691407 18.84375-20.089844 18.84375-20.089844-13.882812-.832032-18.703125-18.742188-18.703125-18.742188zm0 0" fill="#d7e057"/><path d="m397.917969 72.496094c-11.53125-.691406-15.941407-16.371094-15.988281-16.53125-.378907-1.402344-1.707032-2.328125-3.164063-2.203125-1.449219.128906-2.597656 1.285156-2.71875 2.738281-1.15625 13.742188-15.292969 16.132812-15.882813 16.226562-1.527343.230469-2.625 1.578126-2.546874 3.121094.078124 1.539063 1.3125 2.769532 2.855468 2.84375 12.070313.566406 15.445313 17.289063 15.476563 17.449219.269531 1.425781 1.519531 2.441406 2.945312 2.441406.082031 0 .164063-.003906.25-.007812 1.527344-.128907 2.714844-1.390625 2.75-2.921875.261719-11.417969 16.664063-17.269532 16.824219-17.324219 1.351562-.46875 2.1875-1.828125 1.992188-3.246094-.195313-1.414062-1.363282-2.5-2.792969-2.585937zm-19.167969 13.59375c-1.847656-3.773438-4.679688-7.894532-8.894531-10.5625 3.710937-2.082032 7.394531-5.257813 9.742187-9.832032 2.113282 3.746094 5.308594 7.90625 9.882813 10.445313-3.703125 2.203125-7.980469 5.480469-10.730469 9.949219zm0 0" fill="#3a312a"/><path d="m379.035156 3.4375c-1.378906 16.359375-18.425781 18.941406-18.425781 18.941406 14.636719.691406 18.285156 19.890625 18.285156 19.890625.3125-13.691406 18.84375-20.089843 18.84375-20.089843-13.882812-.832032-18.703125-18.742188-18.703125-18.742188zm0 0" fill="#d7e057"/><path d="m397.917969 19.183594c-11.53125-.691406-15.945313-16.371094-15.988281-16.527344-.378907-1.40625-1.707032-2.332031-3.164063-2.207031-1.449219.132812-2.597656 1.285156-2.71875 2.738281-1.15625 13.742188-15.292969 16.132812-15.882813 16.226562-1.527343.230469-2.628906 1.582032-2.546874 3.121094.078124 1.542969 1.3125 2.769532 2.855468 2.84375 12.070313.566406 15.445313 17.289063 15.476563 17.453125.273437 1.421875 1.519531 2.4375 2.949219 2.4375.082031 0 .164062 0 .25-.007812 1.527343-.128907 2.714843-1.390625 2.75-2.921875.261718-11.417969 16.664062-17.269532 16.824218-17.324219 1.355469-.46875 2.1875-1.828125 1.992188-3.246094-.199219-1.417969-1.367188-2.5-2.796875-2.585937zm-19.167969 13.589844c-1.847656-3.773438-4.679688-7.894532-8.894531-10.5625 3.710937-2.082032 7.394531-5.257813 9.742187-9.832032 2.113282 3.746094 5.308594 7.910156 9.882813 10.449219-3.703125 2.199219-7.980469 5.480469-10.730469 9.945313zm0 0" fill="#3a312a"/><path d="m187.003906 168.667969c-5.140625 0-10.140625.601562-15 1.742187 35.898438 8.320313 62.839844 45.136719 62.839844 76.257813 0 26.019531-18.441406 38.121093-62.839844 40.179687 4.699219.242188 9.699219.339844 15 .339844 55.277344 0 77.839844-11.738281 77.839844-40.519531 0-35.320313-34.71875-78-77.839844-78zm0 0" fill="#695b51"/><path d="m373.386719 300.261719c-7.695313 3.644531-16.296875 5.027343-24.71875 4.019531l-22.078125-2.664062c-28.890625-3.46875-58.183594 1.28125-84.511719 13.730468l-120.773437 57.128906-95.074219-3.644531c-4.425781-.152343-8.675781.851563-12.394531 2.816407-9.683594 5.128906-13.605469 17.550781-8.652344 27.332031 2.0625 4.070312 5.535156 7.691406 11.390625 8.675781l183.5625 39.828125c15.1875 2.539063 30.777343.878906 45.082031-4.777344l57.910156-25.21875 32.539063-14.207031 46.46875-20.242188v-86.929687zm0 0" fill="#fce8cb"/><path d="m382.136719 333.710938c1.660156 0 3-1.34375 3-3v-34.601563c0-1.027344-.527344-1.984375-1.394531-2.535156-.871094-.550781-1.960938-.617188-2.890626-.175781l-8.75 4.148437c-7.179687 3.402344-15.160156 4.703125-23.074218 3.753906l-22.078125-2.664062c-29.5-3.539063-59.292969 1.296875-86.152344 13.996093l-120.109375 56.816407-94.351562-3.617188c-4.863282-.167969-9.664063.925781-13.902344 3.160157-11.210938 5.941406-15.664063 20-9.921875 31.339843 2.898437 5.722657 7.589843 9.277344 13.429687 10.25l183.703125 39.859375c4.78125.800782 9.605469 1.195313 14.421875 1.195313 11.003906 0 21.976563-2.074219 32.355469-6.183594l136.914063-59.667969c1.09375-.476562 1.804687-1.554687 1.804687-2.75v-22.703125c0-1.660156-1.34375-3-3-3-1.660156 0-3 1.339844-3 3v20.738281l-135.023437 58.847657c-13.808594 5.460937-28.847657 7.054687-43.34375 4.632812l-183.699219-39.855469c-4.140625-.695312-7.152344-3.007812-9.210938-7.074218-4.203125-8.296875-.824219-18.980469 7.375-23.324219 3.3125-1.746094 7.085938-2.605469 10.878907-2.46875l95.074218 3.644531c.484375.007813.964844-.082031 1.398438-.285156l120.773437-57.132812c25.835938-12.214844 54.496094-16.867188 82.871094-13.460938l22.082031 2.664062c9.042969 1.085938 18.15625-.402343 26.359375-4.289062l4.464844-2.117188v29.855469c-.003906 1.660157 1.339844 3.003907 2.996094 3.003907zm0 0" fill="#3a312a"/><path d="m279.171875 370.3125c-.292969-1.632812-1.859375-2.710938-3.484375-2.421875-21.898438 3.953125-39.15625 8.207031-55.84375 12.320313-17.304688 4.269531-33.65625 8.300781-52.445312 11.171874-8.378907 1.285157-17.875 2.734376-26.367188.429688-7.402344-2.015625-15.121094-8.265625-15.542969-16.304688-.085937-1.65625-1.503906-2.925781-3.152343-2.839843-1.65625.085937-2.925782 1.5-2.839844 3.15625.601562 11.390625 10.765625 19.273437 19.960937 21.777343 3.859375 1.050782 7.789063 1.4375 11.683594 1.4375 5.917969 0 11.757813-.894531 17.167969-1.722656 19.054687-2.914062 35.527344-6.976562 52.96875-11.277344 16.601562-4.09375 33.765625-8.324218 55.472656-12.242187 1.632812-.292969 2.714844-1.855469 2.421875-3.484375zm0 0" fill="#3a312a"/><path d="m402.222656 256.125c-11.097656 0-20.09375 8.996094-20.09375 20.09375v121.742188c0 11.09375 8.996094 20.09375 20.09375 20.09375h46.121094v-161.929688zm0 0" fill="#f16c7a"/><path d="m448.34375 253.125h-46.121094c-12.734375 0-23.09375 10.363281-23.09375 23.09375v54.492188c0 1.65625 1.34375 3 3 3 1.660156 0 3-1.34375 3-3v-54.492188c0-9.425781 7.667969-17.09375 17.09375-17.09375h43.121094v155.929688h-43.121094c-9.425781 0-17.09375-7.667969-17.09375-17.09375v-37.628907c0-1.660156-1.339844-3-3-3-1.65625 0-3 1.339844-3 3v37.628907c0 12.734374 10.359375 23.09375 23.09375 23.09375h46.121094c1.65625 0 3-1.34375 3-3v-161.929688c0-1.65625-1.34375-3-3-3zm0 0" fill="#3a312a"/><path d="m415.234375 369.316406c-8.371094 0-15.15625 6.785156-15.15625 15.15625s6.785156 15.15625 15.15625 15.15625 15.15625-6.785156 15.15625-15.15625c.003906-8.371094-6.785156-15.15625-15.15625-15.15625zm0 0" fill="#87796f"/><path d="m415.238281 366.316406c-10.011719 0-18.160156 8.144532-18.160156 18.15625 0 10.011719 8.148437 18.15625 18.160156 18.15625s18.15625-8.144531 18.15625-18.15625c0-10.011718-8.148437-18.15625-18.15625-18.15625zm0 30.3125c-6.707031 0-12.160156-5.453125-12.160156-12.160156 0-6.703125 5.453125-12.152344 12.160156-12.152344 6.703125 0 12.15625 5.453125 12.15625 12.152344 0 6.707031-5.457031 12.160156-12.15625 12.160156zm0 0" fill="#3a312a"/><path d="m415.34375 259.128906v107.179688c9.960938.058594 18.039062 8.199218 18.039062 18.160156 0 9.980469-8.078124 18.101562-18.039062 18.160156v12.417969h30v-155.917969zm0 0" fill="#d34e5c"/></svg>