<svg height="512pt" viewBox="-13 0 512 512.0112" width="512pt" xmlns="http://www.w3.org/2000/svg"><path d="m90.710938 474.539062c-10.207032 6.058594-21.761719 9.488282-33.621094 9.984376-3.15625 0-6.304688-.34375-9.386719-1.023438-12.792969-2.914062-23.472656-11.667969-28.84375-23.636719-13.90625-27.820312 2.648437-49.070312 14.679687-64.683593 9.042969-11.691407 17.664063-22.785157 17.664063-36.78125.007813-1.453126-.078125-2.90625-.257813-4.351563-.070312-3.796875-1.632812-7.414063-4.351562-10.066406-5.355469-3.03125-11.605469-4.089844-17.664062-2.988281-9.238282 1.835937-18.214844-4.160157-20.054688-13.398438-1.835938-9.234375 4.160156-18.214844 13.398438-20.050781 16.066406-3.144531 32.714843.5 45.996093 10.066406 7.28125 6.042969 12.476563 14.222656 14.847657 23.382813 1.519531 5.675781 2.265624 11.53125 2.21875 17.40625 0 25.6875-13.738282 43.4375-24.832032 57.6875-12.289062 15.957031-14.933594 20.90625-11.09375 28.585937 2.390625 4.777344 4.609375 5.289063 5.632813 5.460937 7.765625 1.707032 22.1875-6.398437 28.160156-11.179687 1.390625-1.15625 2.980469-2.050781 4.691406-2.644531zm0 0" fill="#91562d"/><path d="m426.582031 454.996094c-2.25 27.710937-25.621093 48.917968-53.417969 48.46875h-234.324218c-27.796875.449218-51.167969-20.757813-53.417969-48.46875-1.234375-24.367188 14.855469-46.234375 38.484375-52.308594 2.4375-.566406 4.519531-2.152344 5.71875-4.351562 4.621094-9.234376 8.335938-18.890626 11.09375-28.84375 1.792969-6.460938 3.242188-13.011719 4.351562-19.625.425782-2.644532.851563-5.292969 1.363282-7.765626 1.023437-5.804687 2.046875-11.179687 3.074218-16.042968h212.992188c1.023438 4.863281 2.046875 10.15625 3.070312 15.957031l.257813 1.535156c.425781 2.050781.765625 4.097657 1.109375 6.316407 2.667969 16.84375 7.875 33.1875 15.445312 48.46875.929688 1.804687 2.519532 3.179687 4.433594 3.839843.394532.242188.828125.417969 1.28125.511719 23.683594 6 39.808594 27.917969 38.484375 52.308594zm0 0" fill="#783e22"/><path d="m400.984375 454.996094c-2.25 27.710937-25.621094 48.917968-53.417969 48.46875h-208.726562c-27.796875.449218-51.167969-20.757813-53.417969-48.46875-1.234375-24.367188 14.855469-46.234375 38.484375-52.308594 2.4375-.566406 4.519531-2.152344 5.71875-4.351562 4.621094-9.234376 8.335938-18.890626 11.09375-28.84375 1.792969-6.460938 3.242188-13.011719 4.351562-19.625.425782-2.644532.851563-5.292969 1.363282-7.765626 1.023437-5.804687 2.046875-11.179687 3.074218-16.042968h187.390626c1.023437 4.863281 2.046874 10.15625 3.070312 15.957031l.257812 1.535156c.425782 2.050781.769532 4.097657 1.109376 6.316407 2.667968 16.84375 7.875 33.1875 15.445312 48.46875.929688 1.804687 2.519531 3.179687 4.4375 3.839843.394531.242188.828125.417969 1.28125.511719 23.679688 6 39.804688 27.917969 38.484375 52.308594zm0 0" fill="#a0522d"/><path d="m83.117188 340.992188c-8.84375 8.019531-20.242188 12.644531-32.171876 13.054687-.070312-3.796875-1.632812-7.414063-4.351562-10.066406-5.355469-3.03125-11.605469-4.089844-17.664062-2.988281-9.238282 1.835937-18.214844-4.160157-20.054688-13.398438-1.835938-9.234375 4.160156-18.214844 13.398438-20.050781 16.066406-3.144531 32.714843.5 45.996093 10.066406 7.28125 6.042969 12.476563 14.222656 14.847657 23.382813zm0 0" fill="#ffe0b2"/><path d="m219.757812 388.691406c-6.058593-1.210937-12.34375.097656-17.414062 3.628906-5.066406 3.527344-8.472656 8.972657-9.433594 15.074219-3.265625 20.625-8.484375 48.1875-13.707031 53.40625-5.601563 5.601563-14.878906 7.523438-20.59375 17.832031-2.75 5.292969-2.53125 11.636719.585937 16.722657 3.117188 5.082031 8.667969 8.160156 14.632813 8.109375h34.503906c7.976563.027344 14.894531-5.496094 16.644531-13.28125 5.871094-25.5 10.195313-51.332032 12.953126-77.355469.980468-11.5-6.851563-21.902344-18.179688-24.132813zm0 0" fill="#a0522d"/><path d="m292.257812 388.691406c6.054688-1.210937 12.339844.097656 17.410157 3.628906 5.066406 3.527344 8.472656 8.972657 9.433593 15.074219 3.265626 20.625 8.484376 48.1875 13.699219 53.40625 5.601563 5.601563 14.878907 7.523438 20.59375 17.832031 2.753907 5.289063 2.53125 11.636719-.585937 16.71875-3.113282 5.085938-8.664063 8.164063-14.625 8.113282h-34.503906c-7.976563.027344-14.898438-5.496094-16.644532-13.28125-5.875-25.5-10.199218-51.332032-12.953125-77.355469-.984375-11.5 6.847657-21.902344 18.175781-24.132813zm0 0" fill="#a0522d"/><path d="m477.867188 187.734375c0 65.789063-40.957032 110.421875-102.738282 133.886719-33.410156 12.101562-68.582031 18.648437-104.109375 19.371094-4.949219.253906-9.984375.339843-15.015625.339843-3.585937 0-7.167968-.085937-10.667968-.167969-53.25-1.28125-101.546876-12.460937-138.496094-33.621093-36.523438-20.824219-61.867188-51.285157-69.886719-91.394531-1.917969-9.347657-2.863281-18.871094-2.816406-28.414063-.625-32.199219 10.890625-63.453125 32.253906-87.554687-2.765625-30.9375.777344-62.117188 10.410156-91.644532 3.695313.023438 7.367188.539063 10.925781 1.535156 22.355469 5.632813 48.296876 26.195313 62.890626 38.996094 21.296874-6.625 43.234374-10.972656 65.449218-12.96875 13.269532-1.351562 26.597656-2.007812 39.9375-1.964844 22.160156-.09375 44.285156 1.734376 66.132813 5.460938 12.667969 2.164062 25.183593 5.15625 37.460937 8.960938 14.761719-12.886719 40.445313-33.023438 62.464844-38.570313 3.511719-.921875 7.121094-1.40625 10.75-1.449219 9.386719 28.730469 12.953125 59.046875 10.496094 89.171875 22.429687 23.835938 34.78125 55.417969 34.476562 88.148438.070313.625.097656 1.25.082032 1.878906zm0 0" fill="#91562d"/><g fill="#ffe0b2"><path d="m140.203125 254.550781c.035156 22.621094-12.949219 43.242188-33.363281 52.992188-36.523438-20.824219-61.867188-51.285157-69.886719-91.394531 4.359375-5.089844 9.589844-9.363282 15.445313-12.628907 8.8125-5.109375 18.824218-7.789062 29.011718-7.765625 32.457032.03125 58.761719 26.335938 58.792969 58.796875zm0 0"/><path d="m326.144531 60.671875c0 31.929687-25.882812 57.8125-57.8125 57.8125-31.929687 0-57.8125-25.882813-57.8125-57.8125-.027343-8.503906 1.871094-16.90625 5.546875-24.574219 13.269532-1.351562 26.597656-2.007812 39.9375-1.964844 22.160156-.09375 44.285156 1.734376 66.132813 5.460938 2.679687 6.703125 4.039062 13.859375 4.007812 21.078125zm0 0"/><path d="m386.816406 402.175781c-6.574218 7.167969-15.871094 11.226563-25.597656 11.179688-19.371094 0-35.074219-15.703125-35.074219-35.074219 0-19.367188 15.703125-35.070312 35.074219-35.070312 1.542969-.015626 3.082031.101562 4.609375.339843.425781 2.050781.765625 4.097657 1.109375 6.316407 2.667969 16.84375 7.875 33.1875 15.445312 48.46875.929688 1.804687 2.519532 3.179687 4.433594 3.839843zm0 0"/><path d="m171.609375 406.785156c-.011719 18.554688-13.453125 34.378906-31.765625 37.382813-18.3125 3.007812-36.109375-7.6875-42.050781-25.265625 6.796875-8.003906 15.925781-13.675782 26.113281-16.214844 2.4375-.566406 4.519531-2.152344 5.71875-4.351562 4.621094-9.234376 8.335938-18.890626 11.09375-28.84375 17.9375 3.363281 30.921875 19.042968 30.890625 37.292968zm0 0"/></g><path d="m134.144531 57.429688c-18.246093 7.421874-35.453125 17.175781-51.199219 29.011718-.496093-19.597656 1.480469-39.179687 5.890626-58.28125 16.5625 7.28125 31.859374 17.164063 45.308593 29.269532zm0 0" fill="#ef314c"/><path d="m426.667969 84.566406c-15.578125-11.296875-32.488281-20.640625-50.347657-27.820312 13.238282-11.789063 28.242188-21.433594 44.460938-28.585938 4.222656 18.496094 6.199219 37.433594 5.886719 56.40625zm0 0" fill="#ef314c"/><path d="m279.035156 221.183594-12.800781 13.652344c-5.730469 5.460937-14.742187 5.460937-20.472656 0l-12.800781-13.652344c-2.183594-2.140625-3.050782-5.289063-2.273438-8.25 1.640625-4.769532 6.101562-8 11.144531-8.078125.453125-.046875.910157-.066407 1.367188-.054688h25.601562c.457031-.011719.914063.007813 1.367188.054688 5.039062.101562 9.484375 3.320312 11.148437 8.078125.773438 2.960937-.097656 6.109375-2.28125 8.25zm0 0" fill="#ef314c"/><path d="m386.816406 402.175781c-2.617187 2.898438-5.742187 5.296875-9.214844 7.082031-4.632812-3.011718-9.738281-5.234374-15.101562-6.570312-.453125-.09375-.886719-.269531-1.28125-.511719-1.917969-.660156-3.507812-2.035156-4.4375-3.839843-7.570312-15.28125-12.777344-31.625-15.445312-48.46875 0-.171876-.085938-.257813-.085938-.425782 5.867188-4.0625 12.832031-6.234375 19.96875-6.230468 1.542969-.015626 3.082031.101562 4.609375.339843.425781 2.050781.765625 4.097657 1.109375 6.316407 2.667969 16.84375 7.875 33.1875 15.445312 48.46875.929688 1.804687 2.519532 3.179687 4.433594 3.839843zm0 0" fill="#dfc49c"/><path d="m477.867188 187.734375c0 65.789063-40.957032 110.421875-102.738282 133.886719-33.410156 12.101562-68.582031 18.648437-104.109375 19.371094-4.949219.253906-9.984375.339843-15.015625.339843-3.585937 0-7.167968-.085937-10.667968-.167969-.855469 0-1.621094-.085937-2.476563-.085937.855469 0 1.707031 0 2.5625-.085937 35.527344-.722657 70.695313-7.269532 104.105469-19.371094 5.632812-2.132813 11.09375-4.4375 16.382812-6.996094 52.566406-24.832031 86.359375-67.074219 86.359375-126.890625.011719-.628906-.015625-1.253906-.085937-1.878906-.035156-5.25-.378906-10.492188-1.023438-15.699219-2.921875-27.160156-14.671875-52.613281-33.453125-72.449219 1.925781-27.984375-.933593-56.089843-8.445312-83.113281 4.117187-1.921875 8.402343-3.464844 12.800781-4.609375 3.511719-.921875 7.121094-1.40625 10.75-1.449219 9.386719 28.730469 12.953125 59.046875 10.496094 89.171875 22.429687 23.835938 34.78125 55.417969 34.476562 88.148438.070313.625.097656 1.25.082032 1.878906zm0 0" fill="#6d4122"/><path d="m477.867188 187.734375c0 65.789063-40.957032 110.421875-102.738282 133.886719-1.390625-.859375-2.730468-1.800782-4.011718-2.816406-35.625-26.386719-45.097657-75.664063-21.800782-113.378907 23.296875-37.714843 71.601563-51.300781 111.144532-31.261719 6.242187 3.15625 12.0625 7.085938 17.324218 11.691407.070313.625.097656 1.25.082032 1.878906zm0 0" fill="#ffe0b2"/><path d="m477.867188 187.734375c0 65.789063-40.957032 110.421875-102.738282 133.886719-1.390625-.859375-2.730468-1.800782-4.011718-2.816406-1.808594-1.296876-3.546876-2.695313-5.207032-4.179688 52.566406-24.832031 86.359375-67.074219 86.359375-126.890625.011719-.628906-.015625-1.253906-.085937-1.878906-.035156-5.25-.378906-10.492188-1.023438-15.699219 3.195313 1.105469 6.300782 2.449219 9.300782 4.007812 6.242187 3.15625 12.0625 7.085938 17.324218 11.691407.070313.625.097656 1.25.082032 1.878906zm0 0" fill="#dfc49c"/><path d="m256.003906 349.867188c-139.964844 0-230.402344-63.640626-230.402344-162.132813-.625-33.0625 10.773438-65.230469 32.078126-90.523437-2.421876-31.054688 1.386718-62.285157 11.203124-91.847657 1.292969-3.242187 4.429688-5.363281 7.917969-5.363281 24.023438 0 53.835938 20.792969 75.808594 39.515625 33.609375-9.625 68.4375-14.3125 103.394531-13.914063 34.324219-.371093 68.53125 4.148438 101.582032 13.425782 21.800781-18.488282 51.378906-39.027344 75.226562-39.027344 3.488281 0 6.628906 2.125 7.925781 5.363281 9.539063 28.71875 13.367188 59.027344 11.261719 89.214844 22.808594 25.601563 35.097656 58.875 34.402344 93.15625 0 98.492187-90.4375 162.132813-230.398438 162.132813zm-173.238281-332.203126c-7.273437 26.679688-9.929687 54.410157-7.851563 81.988282.140626 2.261718-.625 4.488281-2.128906 6.183594-19.976562 22.542968-30.730468 51.78125-30.117187 81.898437 0 107.074219 114.921875 145.066406 213.335937 145.066406 98.410156 0 213.332032-37.992187 213.332032-145.066406.675781-31.207031-10.90625-61.433594-32.257813-84.199219-1.585937-1.695312-2.410156-3.964844-2.285156-6.285156 1.804687-26.785156-.882813-53.679688-7.945313-79.578125-15.355468 2.894531-37.332031 16.136719-61.644531 37.316406-2.230469 1.945313-5.316406 2.59375-8.144531 1.710938-32.789063-9.730469-66.855469-14.460938-101.054688-14.03125-34.808594-.457031-69.480468 4.441406-102.796875 14.527343-2.847656.910157-5.964843.261719-8.214843-1.707031-24.546876-21.484375-46.738282-34.90625-62.226563-37.824219zm0 0"/><path d="m373.164062 512h-234.324218c-32.398438.613281-59.613282-24.234375-61.941406-56.554688-1.515626-28.460937 17.296874-54.023437 44.925781-61.035156 7.332031-14.433594 12.332031-29.9375 14.824219-45.9375 1.46875-9.066406 3.027343-17.042968 4.503906-24.148437 1.023437-4.542969 5.5-7.425781 10.058594-6.480469 4.558593.945312 7.519531 5.371094 6.648437 9.945312-1.425781 6.890626-2.941406 14.617188-4.367187 23.441407-2.808594 17.703125-8.289063 34.878906-16.25 50.941406-2.265626 4.363281-6.296876 7.542969-11.066407 8.738281-19.792969 4.960938-33.304687 23.242188-32.234375 43.621094 2.105469 23.132812 21.671875 40.738281 44.898438 40.402344h234.324218c23.222657.335937 42.785157-17.261719 44.902344-40.386719 1.089844-20.316406-12.335937-38.570313-32.050781-43.582031-4.851563-1.175782-8.957031-4.386719-11.265625-8.808594-7.949219-16.046875-13.421875-33.207031-16.234375-50.894531-1.425781-8.851563-2.945313-16.582031-4.367187-23.46875-.871094-4.574219 2.089843-9 6.648437-9.945313 4.558594-.945312 9.035156 1.9375 10.058594 6.480469 1.472656 7.105469 3.03125 15.082031 4.507812 24.179687 2.527344 15.980469 7.464844 31.488282 14.640625 45.992188 27.714844 6.867188 46.644532 32.449219 45.105469 60.960938-2.335937 32.316406-29.550781 57.15625-61.945313 56.539062zm0 0"/><path d="m208.332031 512h-34.503906c-9.171875.03125-17.65625-4.839844-22.257813-12.769531-4.554687-7.574219-4.714843-17.003907-.417968-24.726563 3.90625-6.683594 9.597656-12.152344 16.4375-15.785156 1.996094-1.117188 3.867187-2.441406 5.582031-3.949219 4.113281-5.417969 10.847656-41.558593 14.632813-71.828125.34375-3.054687 2.300781-5.6875 5.128906-6.898437 2.828125-1.207031 6.085937-.796875 8.53125 1.066406 2.445312 1.867187 3.695312 4.902344 3.273437 7.949219-3.320312 26.578125-10.273437 72.550781-19.5 81.773437-2.628906 2.472657-5.542969 4.621094-8.679687 6.40625-4.308594 2.148438-7.933594 5.445313-10.476563 9.535157-1.339843 2.445312-1.265625 5.417968.195313 7.792968 1.554687 2.703125 4.433594 4.367188 7.550781 4.367188h34.507813c3.984374.03125 7.449218-2.726563 8.316406-6.617188 7.582031-31.425781 12.183594-63.496094 13.75-95.78125 0-4.714844 3.820312-8.535156 8.535156-8.535156 4.710938 0 8.53125 3.820312 8.53125 8.535156-1.558594 33.542969-6.300781 66.863282-14.164062 99.511719-2.578126 11.707031-12.984376 20.019531-24.972657 19.953125zm0 0"/><path d="m338.179688 512h-34.511719c-11.984375.066406-22.386719-8.246094-24.96875-19.949219-7.859375-32.648437-12.605469-65.972656-14.164063-99.515625 0-4.714844 3.820313-8.535156 8.535156-8.535156 4.710938 0 8.53125 3.820312 8.53125 8.535156 1.566407 32.289063 6.171876 64.359375 13.757813 95.785156.867187 3.890626 4.332031 6.644532 8.3125 6.613282h34.507813c3.113281 0 5.992187-1.664063 7.546874-4.367188 1.460938-2.375 1.539063-5.347656.203126-7.796875-2.546876-4.085937-6.175782-7.382812-10.480469-9.53125-3.136719-1.785156-6.050781-3.933593-8.679688-6.40625-9.226562-9.222656-16.179687-55.195312-19.5-81.773437-.421875-3.046875.828125-6.082032 3.273438-7.949219 2.441406-1.867187 5.703125-2.273437 8.527343-1.066406 2.828126 1.207031 4.789063 3.84375 5.132813 6.898437 3.785156 30.269532 10.519531 66.410156 14.804687 72.011719 1.675782 1.425781 3.488282 2.6875 5.410157 3.765625 6.835937 3.632812 12.53125 9.097656 16.4375 15.785156 4.296875 7.722656 4.136719 17.152344-.421875 24.722656-4.597656 7.933594-13.085938 12.804688-22.253906 12.773438zm0 0"/><path d="m57.089844 493.054688c-3.777344.003906-7.546875-.40625-11.238282-1.222657-15.285156-3.5-28.082031-13.898437-34.625-28.152343-16.226562-32.464844 2.789063-57.140626 15.367188-73.464844 8.757812-11.324219 16.074219-20.78125 16.074219-31.816406.308593-2.679688-.191407-5.390626-1.4375-7.78125-3.402344-1.4375-7.148438-1.863282-10.785157-1.226563-6.609374 1.316406-13.46875-.070313-19.046874-3.847656-5.636719-3.761719-9.550782-9.601563-10.882813-16.246094-1.351563-6.660156.007813-13.578125 3.777344-19.230469 3.765625-5.65625 9.628906-9.574218 16.292969-10.894531 18.570312-3.621094 37.8125.667969 53.085937 11.835937 13.777344 11.765626 21.253906 29.304688 20.195313 47.390626 0 28.722656-15.390626 48.492187-26.632813 62.925781-12.097656 15.71875-11.503906 16.914062-10.191406 19.53125.195312.390625.367187.699219.511719.933593 7.4375-1.496093 14.402343-4.753906 20.320312-9.496093 2.136719-1.761719 4.570312-3.128907 7.1875-4.035157 4.445312-1.5625 9.316406.769532 10.882812 5.21875 1.5625 4.445313-.773437 9.316407-5.21875 10.882813-.765624.257813-1.476562.660156-2.09375 1.179687-5.34375 4.277344-23.078124 15.640626-35.421874 12.929688-5.230469-1.230469-9.511719-4.96875-11.433594-9.984375-6.691406-13.375.730468-23.015625 11.960937-37.605469 10.828125-13.902344 23.0625-29.621094 23.0625-52.480468.960938-12.9375-4.1875-25.582032-13.914062-34.164063-11.257813-7.945313-25.265625-10.960937-38.796875-8.355469-2.296875.421875-4.324219 1.757813-5.625 3.695313-1.238282 1.855469-1.679688 4.132812-1.226563 6.316406.449219 2.238281 1.765625 4.207031 3.664063 5.472656 1.855468 1.25 4.132812 1.707031 6.324218 1.265625 8.589844-1.582031 17.460938.132813 24.84375 4.804688 5.621094 5.453125 8.441407 13.171875 7.664063 20.964844 0 16.867187-9.839844 29.589843-19.359375 41.890624-12.011719 15.585938-25.328125 32.863282-13.882812 55.757813 4.226562 9.644531 12.753906 16.730469 23.011718 19.113281 12.910156 1.660156 26-1.195312 37.046875-8.074218 4.117188-2.296876 9.316407-.820313 11.613281 3.296874 2.296876 4.117188.820313 9.316407-3.296874 11.613282-11.484376 6.75-24.464844 10.550781-37.777344 11.058594zm-.648438-51.335938.113282.019531zm0 0"/><path d="m256.003906 247.464844c-6.191406.097656-12.144531-2.363282-16.460937-6.796875l-12.789063-13.65625c-4.832031-4.957031-6.199218-12.335938-3.46875-18.699219 3.660156-7.617188 11.484375-12.34375 19.929688-12.046875h25.574218c8.449219-.296875 16.269532 4.433594 19.929688 12.050781 2.734375 6.359375 1.363281 13.742188-3.46875 18.699219l-12.789062 13.652344c-4.316407 4.433593-10.269532 6.894531-16.457032 6.796875zm-12.789062-34.132813c-2.914063 0-4.179688 1.417969-4.289063 1.816407l13.074219 13.855468c2.390625 1.722656 5.613281 1.722656 8.003906 0l12.789063-13.660156c.179687-.59375-1.089844-2.015625-4.003907-2.015625zm0 0"/><path d="m159.132812 187.773438c-11.34375-.152344-22.613281-1.882813-33.476562-5.148438-4.53125-1.296875-7.152344-6.019531-5.859375-10.550781 1.296875-4.53125 6.023437-7.152344 10.554687-5.859375 51.523438 14.722656 66.269532-11.644532 66.867188-12.773438 2.199219-4.136718 7.304688-5.746094 11.476562-3.617187 4.152344 2.117187 5.820313 7.179687 3.742188 11.351562-.667969 1.324219-13.863281 26.597657-53.304688 26.597657zm0 0"/><path d="m352.875 187.773438c-39.449219 0-52.640625-25.273438-53.304688-26.601563-1.378906-2.71875-1.203124-5.96875.464844-8.523437 1.664063-2.550782 4.566406-4.023438 7.609375-3.859376 3.046875.167969 5.769531 1.945313 7.148438 4.664063.722656 1.335937 15.585937 27.417969 66.863281 12.761719 4.53125-1.292969 9.253906 1.328125 10.550781 5.859375s-1.324219 9.253906-5.855469 10.550781c-10.867187 3.265625-22.132812 4.996094-33.476562 5.148438zm0 0"/><path d="m256.003906 273.066406c-4.714844 0-8.535156-3.820312-8.535156-8.53125v-25.601562c0-4.714844 3.820312-8.535156 8.535156-8.535156 4.710938 0 8.53125 3.820312 8.53125 8.535156v25.601562c0 4.710938-3.820312 8.53125-8.53125 8.53125zm0 0"/><path d="m290.136719 307.199219c-2.265625.003906-4.4375-.894531-6.035157-2.5l-28.097656-28.097657-28.101562 28.097657c-3.347656 3.234375-8.671875 3.1875-11.960938-.101563-3.292968-3.292968-3.339844-8.617187-.105468-11.964844l34.132812-34.132812c1.601562-1.601562 3.769531-2.5 6.035156-2.5 2.261719 0 4.433594.898438 6.03125 2.5l34.132813 34.132812c2.441406 2.441407 3.171875 6.109376 1.851562 9.300782-1.324219 3.1875-4.433593 5.265625-7.882812 5.265625zm0 0"/></svg>